<mxfile host="app.diagrams.net" agent="Mozilla/5.0 (Windows NT 10.0; Win64; x64) AppleWebKit/537.36 (KHTML, like Gecko) Chrome/139.0.0.0 Safari/537.36 Edg/139.0.0.0" version="28.1.0">
  <diagram name="Page-1" id="0783ab3e-0a74-02c8-0abd-f7b4e66b4bec">
    <mxGraphModel dx="1177" dy="1303" grid="1" gridSize="10" guides="1" tooltips="1" connect="1" arrows="1" fold="1" page="1" pageScale="1" pageWidth="1654" pageHeight="1169" background="none" math="0" shadow="0">
      <root>
        <mxCell id="0" />
        <mxCell id="1" parent="0" />
        <mxCell id="1c1d494c118603dd-1" value="BETK" style="swimlane;html=1;childLayout=stackLayout;startSize=20;rounded=0;shadow=0;comic=0;labelBackgroundColor=none;strokeWidth=1;fontFamily=Verdana;fontSize=12;align=center;" parent="1" vertex="1">
          <mxGeometry x="40" y="20" width="820" height="990" as="geometry" />
        </mxCell>
        <mxCell id="1c1d494c118603dd-2" value="Peppol BIS" style="swimlane;html=1;startSize=20;" parent="1c1d494c118603dd-1" vertex="1">
          <mxGeometry y="20" width="820" height="970" as="geometry" />
        </mxCell>
        <mxCell id="ov1N7ag6DKZ-0V74_zyp-7" style="edgeStyle=orthogonalEdgeStyle;rounded=0;orthogonalLoop=1;jettySize=auto;html=1;entryX=0.5;entryY=0;entryDx=0;entryDy=0;fontSize=12;startSize=8;endSize=8;curved=1;exitX=0.5;exitY=1;exitDx=0;exitDy=0;" parent="1c1d494c118603dd-2" source="ov1N7ag6DKZ-0V74_zyp-1" target="ov1N7ag6DKZ-0V74_zyp-6" edge="1">
          <mxGeometry relative="1" as="geometry">
            <mxPoint x="75.00000000000023" y="109.17" as="sourcePoint" />
          </mxGeometry>
        </mxCell>
        <mxCell id="ov1N7ag6DKZ-0V74_zyp-14" style="edgeStyle=orthogonalEdgeStyle;curved=1;rounded=0;orthogonalLoop=1;jettySize=auto;html=1;entryX=0.5;entryY=0;entryDx=0;entryDy=0;fontSize=12;startSize=8;endSize=8;entryPerimeter=0;" parent="1c1d494c118603dd-2" source="ov1N7ag6DKZ-0V74_zyp-1" target="vd2ycQLSVYX_bV4Vcwtc-8" edge="1">
          <mxGeometry relative="1" as="geometry">
            <mxPoint x="361.3000000000002" y="261.4599999999998" as="targetPoint" />
          </mxGeometry>
        </mxCell>
        <mxCell id="ov1N7ag6DKZ-0V74_zyp-1" value="Catalogue With&lt;div&gt;Response 3.1&lt;/div&gt;" style="rounded=1;whiteSpace=wrap;html=1;fillColor=#1ba1e2;strokeColor=#006EAF;fontColor=#ffffff;" parent="1c1d494c118603dd-2" vertex="1">
          <mxGeometry x="30" y="50" width="90" height="40" as="geometry" />
        </mxCell>
        <mxCell id="ov1N7ag6DKZ-0V74_zyp-2" value="1.11.2025" style="shape=link;html=1;rounded=0;fontSize=12;startSize=8;endSize=8;curved=1;fillColor=#dae8fc;strokeColor=#6c8ebf;" parent="1c1d494c118603dd-2" edge="1">
          <mxGeometry width="100" relative="1" as="geometry">
            <mxPoint x="10" y="190.00000000000003" as="sourcePoint" />
            <mxPoint x="200" y="190.00000000000003" as="targetPoint" />
          </mxGeometry>
        </mxCell>
        <mxCell id="ov1N7ag6DKZ-0V74_zyp-15" style="edgeStyle=orthogonalEdgeStyle;curved=1;rounded=0;orthogonalLoop=1;jettySize=auto;html=1;entryX=0.5;entryY=0;entryDx=0;entryDy=0;fontSize=12;startSize=8;endSize=8;exitX=1;exitY=0.5;exitDx=0;exitDy=0;entryPerimeter=0;" parent="1c1d494c118603dd-2" source="ov1N7ag6DKZ-0V74_zyp-6" target="vd2ycQLSVYX_bV4Vcwtc-8" edge="1">
          <mxGeometry relative="1" as="geometry">
            <mxPoint x="360.10000000000014" y="263.1999999999998" as="targetPoint" />
          </mxGeometry>
        </mxCell>
        <mxCell id="ov1N7ag6DKZ-0V74_zyp-6" value="&lt;div&gt;Ordering 3.3&lt;/div&gt;" style="rounded=1;whiteSpace=wrap;html=1;fillColor=#1ba1e2;strokeColor=#006EAF;fontColor=#ffffff;" parent="1c1d494c118603dd-2" vertex="1">
          <mxGeometry x="30" y="140.00000000000003" width="90" height="40" as="geometry" />
        </mxCell>
        <mxCell id="vd2ycQLSVYX_bV4Vcwtc-2" value="" style="edgeStyle=orthogonalEdgeStyle;rounded=0;orthogonalLoop=1;jettySize=auto;html=1;fontSize=12;startSize=8;endSize=8;curved=1;" edge="1" parent="1c1d494c118603dd-2" source="ov1N7ag6DKZ-0V74_zyp-9" target="vd2ycQLSVYX_bV4Vcwtc-1">
          <mxGeometry relative="1" as="geometry" />
        </mxCell>
        <mxCell id="ov1N7ag6DKZ-0V74_zyp-9" value="Advanced Despatch Advice with Receipt Advice" style="rounded=1;whiteSpace=wrap;html=1;fillColor=#f8cecc;strokeColor=#b85450;" parent="1c1d494c118603dd-2" vertex="1">
          <mxGeometry x="20" y="320" width="160" height="40" as="geometry" />
        </mxCell>
        <mxCell id="ov1N7ag6DKZ-0V74_zyp-10" style="edgeStyle=orthogonalEdgeStyle;curved=1;rounded=0;orthogonalLoop=1;jettySize=auto;html=1;fontSize=12;startSize=8;endSize=8;entryX=0.5;entryY=0;entryDx=0;entryDy=0;exitX=0.5;exitY=1;exitDx=0;exitDy=0;" parent="1c1d494c118603dd-2" source="ov1N7ag6DKZ-0V74_zyp-6" target="ov1N7ag6DKZ-0V74_zyp-9" edge="1">
          <mxGeometry relative="1" as="geometry">
            <mxPoint x="95" y="300" as="targetPoint" />
          </mxGeometry>
        </mxCell>
        <mxCell id="ov1N7ag6DKZ-0V74_zyp-12" value="2.9.2025" style="shape=link;html=1;rounded=0;fontSize=12;startSize=8;endSize=8;curved=1;fillColor=#d5e8d4;strokeColor=#82b366;" parent="1c1d494c118603dd-2" edge="1">
          <mxGeometry width="100" relative="1" as="geometry">
            <mxPoint x="265" y="220" as="sourcePoint" />
            <mxPoint x="455" y="220" as="targetPoint" />
          </mxGeometry>
        </mxCell>
        <mxCell id="ov1N7ag6DKZ-0V74_zyp-18" value="1.2.2026" style="shape=link;html=1;rounded=0;fontSize=12;startSize=8;endSize=8;curved=1;fillColor=#f8cecc;strokeColor=#b85450;" parent="1c1d494c118603dd-2" edge="1">
          <mxGeometry width="100" relative="1" as="geometry">
            <mxPoint x="310" y="390" as="sourcePoint" />
            <mxPoint x="410" y="390" as="targetPoint" />
          </mxGeometry>
        </mxCell>
        <mxCell id="ov1N7ag6DKZ-0V74_zyp-19" value="14.11.2025" style="shape=link;html=1;rounded=0;fontSize=12;startSize=8;endSize=8;curved=1;fillColor=#f8cecc;strokeColor=#b85450;" parent="1c1d494c118603dd-2" edge="1">
          <mxGeometry width="100" relative="1" as="geometry">
            <mxPoint x="10" y="300" as="sourcePoint" />
            <mxPoint x="190" y="300" as="targetPoint" />
          </mxGeometry>
        </mxCell>
        <mxCell id="ov1N7ag6DKZ-0V74_zyp-73" value="1.2.2026" style="shape=link;html=1;rounded=0;fontSize=12;startSize=8;endSize=8;curved=1;fillColor=#f8cecc;strokeColor=#b85450;" parent="1c1d494c118603dd-2" edge="1">
          <mxGeometry width="100" relative="1" as="geometry">
            <mxPoint x="315" y="490" as="sourcePoint" />
            <mxPoint x="415" y="490" as="targetPoint" />
          </mxGeometry>
        </mxCell>
        <mxCell id="tsWJ6s4taVNARHcV3OjV-2" value="1.2.2025" style="shape=link;html=1;rounded=0;fontSize=12;startSize=8;endSize=8;curved=1;fillColor=#dae8fc;strokeColor=#6c8ebf;" parent="1c1d494c118603dd-2" edge="1">
          <mxGeometry width="100" relative="1" as="geometry">
            <mxPoint x="10" y="40" as="sourcePoint" />
            <mxPoint x="200" y="40" as="targetPoint" />
          </mxGeometry>
        </mxCell>
        <mxCell id="vd2ycQLSVYX_bV4Vcwtc-4" style="edgeStyle=orthogonalEdgeStyle;curved=1;rounded=0;orthogonalLoop=1;jettySize=auto;html=1;entryX=0;entryY=0.5;entryDx=0;entryDy=0;fontSize=12;startSize=8;endSize=8;" edge="1" parent="1c1d494c118603dd-2" source="vd2ycQLSVYX_bV4Vcwtc-1" target="vd2ycQLSVYX_bV4Vcwtc-3">
          <mxGeometry relative="1" as="geometry" />
        </mxCell>
        <mxCell id="vd2ycQLSVYX_bV4Vcwtc-1" value="Despatch Advice" style="whiteSpace=wrap;html=1;fillColor=#f8cecc;strokeColor=#b85450;rounded=1;" vertex="1" parent="1c1d494c118603dd-2">
          <mxGeometry x="20" y="450" width="110" height="30" as="geometry" />
        </mxCell>
        <mxCell id="vd2ycQLSVYX_bV4Vcwtc-3" value="Receipt Advice" style="whiteSpace=wrap;html=1;fillColor=#f8cecc;strokeColor=#b85450;rounded=1;" vertex="1" parent="1c1d494c118603dd-2">
          <mxGeometry x="100" y="515" width="110" height="30" as="geometry" />
        </mxCell>
        <mxCell id="vd2ycQLSVYX_bV4Vcwtc-8" value="POC - Planning&lt;div&gt;Catalogue with response&lt;/div&gt;&lt;div&gt;Ordering&lt;/div&gt;" style="strokeWidth=2;html=1;shape=mxgraph.flowchart.loop_limit;whiteSpace=wrap;" vertex="1" parent="1c1d494c118603dd-2">
          <mxGeometry x="310" y="240" width="120" height="60" as="geometry" />
        </mxCell>
      </root>
    </mxGraphModel>
  </diagram>
</mxfile>
